<svg viewBox="0 0 15 16" xmlns="http://www.w3.org/2000/svg"><path d="m13.7994516 12.9346563c-.111967.8315262-.6714822 1.5510854-1.4549313 1.870854-.3838181.1597246-.7994215.2078017-1.2151845.1597246-.3996309-.0479174-.7994216-.1758568-1.21502496-.4154437-.57564736-.320088-1.15129472-.8155536-1.82277687-1.5510853 1.05530029-1.2950469 1.6946778-2.4782867 1.93458413-3.53326752.1119669-.4957851.1279393-.9434931.080022-1.35925618-.0638898-.3996309-.20780167-.76747658-.43173558-1.08724521-.49562533-.71939954-1.32699177-1.13516261-2.25435269-1.13516261-.92736093 0-1.75872738.43173553-2.25435276 1.13516261-.22393386.31976863-.36768598.68761431-.43173554 1.08724521-.06388983.41576308-.04791737.87944354.08002202 1.35925618.23974659 1.05498082.89525627 2.25419302 1.93458413 3.54908022-.65550968.7356914-1.24712954 1.2313168-1.82277693 1.5510854-.41560336.2399063-.81539398.3678457-1.21502488.4156034-.43173555.0480771-.84749864-.0159725-1.21518462-.1597246-.78344907-.3197687-1.34296428-1.0394876-1.45493121-1.870854-.04791737-.3996309-.01597246-.7992618.14391185-1.2469698.04791737-.1600441.12793939-.3196089.20780168-.5115979.11196693-.255719.23990632-.52773.36768598-.7995812l.01613219-.0317852c1.10305795-2.38245186 2.28629765-4.81266138 3.51745472-7.17882132l.04791738-.0961542c.12793939-.23958687.25571905-.49530592.38381817-.73521225.12777967-.25587877.2716915-.49578509.44754825-.7037465.3357411-.38381817.7834491-.59161985 1.27907449-.59161985.49562534 0 .94333334.20780168 1.27907444.59161985.17585675.20796141.31976858.44786773.447708.7037465.12793936.23990633.25571901.49562538.38365843.73521225l.0480771.0961542c1.21502488 2.3821324 2.39826458 4.81234192 3.50148228 7.19479372v.0158128c.1279393.2558788.2397466.5438622.367686.7995812.080022.191989.1598842.3515538.2078016.5115979.1279395.4156033.1758568.8155536.111967 1.2309973zm-6.37939977-.7515042c-.86331137-1.0870854-1.42298632-2.1104409-1.61481554-2.97359251-.07986228-.36784568-.09599447-.68761431-.04791737-.97543797.03194492-.25587878.1279394-.47981263.25571905-.67180162.30379617-.43125635.81539397-.70358678 1.40701386-.70358678.59161982 0 1.11919014.25603849 1.40701379.70358678.12777971.19198899.22377415.41592284.25571908.67180162.04791739.28782366.03194492.62356476-.0479174.97543797-.19182921.84733891-.75150411 1.87053461-1.61481547 2.97359251zm7.21076617-.8313664c-.0798623-.1918292-.1598843-.3996309-.2397466-.5754877-.1279393-.2876639-.2558788-.5596749-.3678457-.81555365l-.0159724-.01581276c-1.103058-2.39842429-2.2862977-4.82863381-3.5334272-7.22657895l-.0479174-.09615419c-.1279394-.23990632-.2558788-.49578511-.3836584-.75150415-.1600441-.28798342-.31992839-.59146013-.57564746-.87944355-.51175751-.63953722-1.24712951-.99125075-2.03057855-.99125075-.79942157 0-1.51882104.35171353-2.04655108.95946556-.2397466.28766397-.41560336.59146012-.57548766.87944354-.12793939.25571906-.25587878.51159783-.38381817.75150416l-.04791737.09567502c-1.23099736 2.39826458-2.43020951 4.82863381-3.53342719 7.22689839l-.01597245.03194492c-.11196694.25571911-.23990633.52741051-.36784572.81539401-.07986229.1760165-.1598843.3678457-.23974659.5756474-.20796141.5914601-.27185124 1.151135-.19198895 1.7266227.17601649 1.1992121.97543801 2.2065951 2.0786557 2.6541434.41560336.1760164.8473389.2558788 1.2950469.2558788.12793939 0 .2878237-.0159725.41576308-.0321047.5275703-.0640495 1.07111305-.2395869 1.59868334-.5435428.65566941-.3676859 1.27923416-.8952563 1.98266123-1.6627328.70342707.7674765 1.34296429 1.2950469 1.98250151 1.6627328.52772997.3039559 1.07127273.4794933 1.59884303.5435428.1279394.0161322.2878237.0321047.4157631.0321047.447708 0 .8952562-.0798624 1.2950469-.2558788 1.1191902-.4475483 1.9026392-1.4709037 2.078496-2.6541434.1279394-.5596749.0638898-1.1190304-.1439119-1.71081z" fill="#e0565b"/></svg>